<mxfile host="app.diagrams.net" agent="Mozilla/5.0 (Windows NT 10.0; Win64; x64) AppleWebKit/537.36 (KHTML, like Gecko) Chrome/131.0.0.0 Safari/537.36" version="25.0.1">
  <diagram name="Page-1" id="bpIcobzi0M6Vw2k8Tmk3">
    <mxGraphModel dx="2309" dy="803" grid="1" gridSize="10" guides="1" tooltips="1" connect="1" arrows="1" fold="1" page="1" pageScale="1" pageWidth="2336" pageHeight="1654" math="0" shadow="0">
      <root>
        <mxCell id="0" />
        <mxCell id="1" parent="0" />
        <mxCell id="jw8cfmfsAVehepTe2Xxh-1" value="&lt;b&gt;&lt;font style=&quot;font-size: 15px;&quot;&gt;Store branch&lt;/font&gt;&lt;/b&gt;" style="swimlane;fontStyle=0;childLayout=stackLayout;horizontal=1;startSize=26;fillColor=none;horizontalStack=0;resizeParent=1;resizeParentMax=0;resizeLast=0;collapsible=1;marginBottom=0;whiteSpace=wrap;html=1;" vertex="1" parent="1">
          <mxGeometry x="388" y="407" width="120" height="160" as="geometry" />
        </mxCell>
        <mxCell id="jw8cfmfsAVehepTe2Xxh-2" value="- name [0..*]&lt;br&gt;- has_warehouse" style="text;strokeColor=none;fillColor=none;align=left;verticalAlign=top;spacingLeft=4;spacingRight=4;overflow=hidden;rotatable=0;points=[[0,0.5],[1,0.5]];portConstraint=eastwest;whiteSpace=wrap;html=1;fontSize=14;" vertex="1" parent="jw8cfmfsAVehepTe2Xxh-1">
          <mxGeometry y="26" width="120" height="134" as="geometry" />
        </mxCell>
        <mxCell id="jw8cfmfsAVehepTe2Xxh-4" value="&lt;b&gt;&lt;font style=&quot;font-size: 15px;&quot;&gt;Address&lt;/font&gt;&lt;/b&gt;" style="swimlane;fontStyle=0;childLayout=stackLayout;horizontal=1;startSize=26;fillColor=none;horizontalStack=0;resizeParent=1;resizeParentMax=0;resizeLast=0;collapsible=1;marginBottom=0;whiteSpace=wrap;html=1;" vertex="1" parent="1">
          <mxGeometry x="708" y="407" width="120" height="160" as="geometry" />
        </mxCell>
        <mxCell id="jw8cfmfsAVehepTe2Xxh-5" value="- city" style="text;strokeColor=none;fillColor=none;align=left;verticalAlign=top;spacingLeft=4;spacingRight=4;overflow=hidden;rotatable=0;points=[[0,0.5],[1,0.5]];portConstraint=eastwest;whiteSpace=wrap;html=1;fontSize=14;" vertex="1" parent="jw8cfmfsAVehepTe2Xxh-4">
          <mxGeometry y="26" width="120" height="26" as="geometry" />
        </mxCell>
        <mxCell id="jw8cfmfsAVehepTe2Xxh-6" value="- street" style="text;strokeColor=none;fillColor=none;align=left;verticalAlign=top;spacingLeft=4;spacingRight=4;overflow=hidden;rotatable=0;points=[[0,0.5],[1,0.5]];portConstraint=eastwest;whiteSpace=wrap;html=1;fontSize=14;" vertex="1" parent="jw8cfmfsAVehepTe2Xxh-4">
          <mxGeometry y="52" width="120" height="26" as="geometry" />
        </mxCell>
        <mxCell id="jw8cfmfsAVehepTe2Xxh-7" value="- zip_code" style="text;strokeColor=none;fillColor=none;align=left;verticalAlign=top;spacingLeft=4;spacingRight=4;overflow=hidden;rotatable=0;points=[[0,0.5],[1,0.5]];portConstraint=eastwest;whiteSpace=wrap;html=1;fontSize=14;" vertex="1" parent="jw8cfmfsAVehepTe2Xxh-4">
          <mxGeometry y="78" width="120" height="82" as="geometry" />
        </mxCell>
        <mxCell id="jw8cfmfsAVehepTe2Xxh-8" value="located at" style="text;align=center;fontStyle=0;verticalAlign=middle;spacingLeft=3;spacingRight=3;strokeColor=none;rotatable=0;points=[[0,0.5],[1,0.5]];portConstraint=eastwest;html=1;fontSize=14;" vertex="1" parent="1">
          <mxGeometry x="568" y="489" width="80" height="26" as="geometry" />
        </mxCell>
        <mxCell id="jw8cfmfsAVehepTe2Xxh-9" value="0..1" style="text;strokeColor=none;fillColor=none;align=left;verticalAlign=top;spacingLeft=4;spacingRight=4;overflow=hidden;rotatable=0;points=[[0,0.5],[1,0.5]];portConstraint=eastwest;whiteSpace=wrap;html=1;" vertex="1" parent="1">
          <mxGeometry x="508" y="481" width="40" height="26" as="geometry" />
        </mxCell>
        <mxCell id="jw8cfmfsAVehepTe2Xxh-10" value="1..1" style="text;strokeColor=none;fillColor=none;align=left;verticalAlign=top;spacingLeft=4;spacingRight=4;overflow=hidden;rotatable=0;points=[[0,0.5],[1,0.5]];portConstraint=eastwest;whiteSpace=wrap;html=1;" vertex="1" parent="1">
          <mxGeometry x="668" y="481" width="40" height="26" as="geometry" />
        </mxCell>
        <mxCell id="jw8cfmfsAVehepTe2Xxh-11" value="&lt;b&gt;&lt;font style=&quot;font-size: 15px;&quot;&gt;Customer&lt;/font&gt;&lt;/b&gt;" style="swimlane;fontStyle=0;childLayout=stackLayout;horizontal=1;startSize=26;fillColor=none;horizontalStack=0;resizeParent=1;resizeParentMax=0;resizeLast=0;collapsible=1;marginBottom=0;whiteSpace=wrap;html=1;" vertex="1" parent="1">
          <mxGeometry x="388" y="766" width="120" height="200" as="geometry" />
        </mxCell>
        <mxCell id="jw8cfmfsAVehepTe2Xxh-12" value="-&amp;nbsp;given_name" style="text;strokeColor=none;fillColor=none;align=left;verticalAlign=top;spacingLeft=4;spacingRight=4;overflow=hidden;rotatable=0;points=[[0,0.5],[1,0.5]];portConstraint=eastwest;whiteSpace=wrap;html=1;fontSize=14;" vertex="1" parent="jw8cfmfsAVehepTe2Xxh-11">
          <mxGeometry y="26" width="120" height="26" as="geometry" />
        </mxCell>
        <mxCell id="jw8cfmfsAVehepTe2Xxh-13" value="-&amp;nbsp;family_name" style="text;strokeColor=none;fillColor=none;align=left;verticalAlign=top;spacingLeft=4;spacingRight=4;overflow=hidden;rotatable=0;points=[[0,0.5],[1,0.5]];portConstraint=eastwest;whiteSpace=wrap;html=1;fontSize=14;" vertex="1" parent="jw8cfmfsAVehepTe2Xxh-11">
          <mxGeometry y="52" width="120" height="26" as="geometry" />
        </mxCell>
        <mxCell id="jw8cfmfsAVehepTe2Xxh-14" value="- birth_date" style="text;strokeColor=none;fillColor=none;align=left;verticalAlign=top;spacingLeft=4;spacingRight=4;overflow=hidden;rotatable=0;points=[[0,0.5],[1,0.5]];portConstraint=eastwest;whiteSpace=wrap;html=1;fontSize=14;" vertex="1" parent="jw8cfmfsAVehepTe2Xxh-11">
          <mxGeometry y="78" width="120" height="26" as="geometry" />
        </mxCell>
        <mxCell id="jw8cfmfsAVehepTe2Xxh-15" value="-&amp;nbsp;phone_number" style="text;strokeColor=none;fillColor=none;align=left;verticalAlign=top;spacingLeft=4;spacingRight=4;overflow=hidden;rotatable=0;points=[[0,0.5],[1,0.5]];portConstraint=eastwest;whiteSpace=wrap;html=1;fontSize=14;" vertex="1" parent="jw8cfmfsAVehepTe2Xxh-11">
          <mxGeometry y="104" width="120" height="96" as="geometry" />
        </mxCell>
        <mxCell id="jw8cfmfsAVehepTe2Xxh-16" value="1..1" style="text;strokeColor=none;fillColor=none;align=left;verticalAlign=top;spacingLeft=4;spacingRight=4;overflow=hidden;rotatable=0;points=[[0,0.5],[1,0.5]];portConstraint=eastwest;whiteSpace=wrap;html=1;" vertex="1" parent="1">
          <mxGeometry x="448" y="567" width="40" height="26" as="geometry" />
        </mxCell>
        <mxCell id="jw8cfmfsAVehepTe2Xxh-18" value="0..n" style="text;strokeColor=none;fillColor=none;align=left;verticalAlign=top;spacingLeft=4;spacingRight=4;overflow=hidden;rotatable=0;points=[[0,0.5],[1,0.5]];portConstraint=eastwest;whiteSpace=wrap;html=1;" vertex="1" parent="1">
          <mxGeometry x="448" y="740" width="40" height="26" as="geometry" />
        </mxCell>
        <mxCell id="jw8cfmfsAVehepTe2Xxh-19" value="shops at" style="text;align=center;fontStyle=0;verticalAlign=middle;spacingLeft=3;spacingRight=3;strokeColor=none;rotatable=0;points=[[0,0.5],[1,0.5]];portConstraint=eastwest;html=1;fontSize=14;" vertex="1" parent="1">
          <mxGeometry x="448" y="658" width="80" height="26" as="geometry" />
        </mxCell>
        <mxCell id="jw8cfmfsAVehepTe2Xxh-20" value="&lt;b&gt;&lt;font style=&quot;font-size: 15px;&quot;&gt;Loyalty Card&lt;/font&gt;&lt;/b&gt;" style="swimlane;fontStyle=0;childLayout=stackLayout;horizontal=1;startSize=26;fillColor=none;horizontalStack=0;resizeParent=1;resizeParentMax=0;resizeLast=0;collapsible=1;marginBottom=0;whiteSpace=wrap;html=1;" vertex="1" parent="1">
          <mxGeometry x="88" y="766" width="120" height="200" as="geometry" />
        </mxCell>
        <mxCell id="jw8cfmfsAVehepTe2Xxh-21" value="-&amp;nbsp;number" style="text;strokeColor=none;fillColor=none;align=left;verticalAlign=top;spacingLeft=4;spacingRight=4;overflow=hidden;rotatable=0;points=[[0,0.5],[1,0.5]];portConstraint=eastwest;whiteSpace=wrap;html=1;fontSize=14;" vertex="1" parent="jw8cfmfsAVehepTe2Xxh-20">
          <mxGeometry y="26" width="120" height="26" as="geometry" />
        </mxCell>
        <mxCell id="jw8cfmfsAVehepTe2Xxh-22" value="-&amp;nbsp;points" style="text;strokeColor=none;fillColor=none;align=left;verticalAlign=top;spacingLeft=4;spacingRight=4;overflow=hidden;rotatable=0;points=[[0,0.5],[1,0.5]];portConstraint=eastwest;whiteSpace=wrap;html=1;fontSize=14;" vertex="1" parent="jw8cfmfsAVehepTe2Xxh-20">
          <mxGeometry y="52" width="120" height="148" as="geometry" />
        </mxCell>
        <mxCell id="jw8cfmfsAVehepTe2Xxh-24" value="0..1" style="text;strokeColor=none;fillColor=none;align=left;verticalAlign=top;spacingLeft=4;spacingRight=4;overflow=hidden;rotatable=0;points=[[0,0.5],[1,0.5]];portConstraint=eastwest;whiteSpace=wrap;html=1;" vertex="1" parent="1">
          <mxGeometry x="208" y="881" width="40" height="26" as="geometry" />
        </mxCell>
        <mxCell id="jw8cfmfsAVehepTe2Xxh-25" value="1..1" style="text;strokeColor=none;fillColor=none;align=left;verticalAlign=top;spacingLeft=4;spacingRight=4;overflow=hidden;rotatable=0;points=[[0,0.5],[1,0.5]];portConstraint=eastwest;whiteSpace=wrap;html=1;" vertex="1" parent="1">
          <mxGeometry x="348" y="881" width="40" height="26" as="geometry" />
        </mxCell>
        <mxCell id="jw8cfmfsAVehepTe2Xxh-26" value="has&amp;nbsp;loyalty card" style="text;align=center;fontStyle=0;verticalAlign=middle;spacingLeft=3;spacingRight=3;strokeColor=none;rotatable=0;points=[[0,0.5],[1,0.5]];portConstraint=eastwest;html=1;fontSize=14;" vertex="1" parent="1">
          <mxGeometry x="258" y="907" width="80" height="26" as="geometry" />
        </mxCell>
        <mxCell id="jw8cfmfsAVehepTe2Xxh-27" value="&lt;b&gt;&lt;font style=&quot;font-size: 15px;&quot;&gt;Employee&lt;/font&gt;&lt;/b&gt;" style="swimlane;fontStyle=0;childLayout=stackLayout;horizontal=1;startSize=26;fillColor=none;horizontalStack=0;resizeParent=1;resizeParentMax=0;resizeLast=0;collapsible=1;marginBottom=0;whiteSpace=wrap;html=1;" vertex="1" parent="1">
          <mxGeometry x="108" y="407" width="120" height="160" as="geometry" />
        </mxCell>
        <mxCell id="jw8cfmfsAVehepTe2Xxh-28" value="- given_name" style="text;strokeColor=none;fillColor=none;align=left;verticalAlign=top;spacingLeft=4;spacingRight=4;overflow=hidden;rotatable=0;points=[[0,0.5],[1,0.5]];portConstraint=eastwest;whiteSpace=wrap;html=1;fontSize=14;" vertex="1" parent="jw8cfmfsAVehepTe2Xxh-27">
          <mxGeometry y="26" width="120" height="26" as="geometry" />
        </mxCell>
        <mxCell id="jw8cfmfsAVehepTe2Xxh-29" value="-&amp;nbsp;family_name" style="text;strokeColor=none;fillColor=none;align=left;verticalAlign=top;spacingLeft=4;spacingRight=4;overflow=hidden;rotatable=0;points=[[0,0.5],[1,0.5]];portConstraint=eastwest;whiteSpace=wrap;html=1;fontSize=14;" vertex="1" parent="jw8cfmfsAVehepTe2Xxh-27">
          <mxGeometry y="52" width="120" height="108" as="geometry" />
        </mxCell>
        <mxCell id="jw8cfmfsAVehepTe2Xxh-31" value="0..n" style="text;strokeColor=none;fillColor=none;align=left;verticalAlign=top;spacingLeft=4;spacingRight=4;overflow=hidden;rotatable=0;points=[[0,0.5],[1,0.5]];portConstraint=eastwest;whiteSpace=wrap;html=1;" vertex="1" parent="1">
          <mxGeometry x="228" y="481" width="40" height="26" as="geometry" />
        </mxCell>
        <mxCell id="jw8cfmfsAVehepTe2Xxh-32" value="1..1" style="text;strokeColor=none;fillColor=none;align=left;verticalAlign=top;spacingLeft=4;spacingRight=4;overflow=hidden;rotatable=0;points=[[0,0.5],[1,0.5]];portConstraint=eastwest;whiteSpace=wrap;html=1;" vertex="1" parent="1">
          <mxGeometry x="348" y="481" width="40" height="26" as="geometry" />
        </mxCell>
        <mxCell id="jw8cfmfsAVehepTe2Xxh-33" value="works at" style="text;align=center;fontStyle=0;verticalAlign=middle;spacingLeft=3;spacingRight=3;strokeColor=none;rotatable=0;points=[[0,0.5],[1,0.5]];portConstraint=eastwest;html=1;fontSize=14;" vertex="1" parent="1">
          <mxGeometry x="258" y="489" width="80" height="26" as="geometry" />
        </mxCell>
        <mxCell id="jw8cfmfsAVehepTe2Xxh-34" value="&lt;b&gt;&lt;font style=&quot;font-size: 15px;&quot;&gt;Cash Register&lt;/font&gt;&lt;/b&gt;" style="swimlane;fontStyle=0;childLayout=stackLayout;horizontal=1;startSize=26;fillColor=none;horizontalStack=0;resizeParent=1;resizeParentMax=0;resizeLast=0;collapsible=1;marginBottom=0;whiteSpace=wrap;html=1;" vertex="1" parent="1">
          <mxGeometry x="388" y="107" width="140" height="146" as="geometry" />
        </mxCell>
        <mxCell id="jw8cfmfsAVehepTe2Xxh-35" value="-&amp;nbsp;number" style="text;strokeColor=none;fillColor=none;align=left;verticalAlign=top;spacingLeft=4;spacingRight=4;overflow=hidden;rotatable=0;points=[[0,0.5],[1,0.5]];portConstraint=eastwest;whiteSpace=wrap;html=1;fontSize=14;" vertex="1" parent="jw8cfmfsAVehepTe2Xxh-34">
          <mxGeometry y="26" width="140" height="26" as="geometry" />
        </mxCell>
        <mxCell id="jw8cfmfsAVehepTe2Xxh-36" value="- is_self_checkout" style="text;strokeColor=none;fillColor=none;align=left;verticalAlign=top;spacingLeft=4;spacingRight=4;overflow=hidden;rotatable=0;points=[[0,0.5],[1,0.5]];portConstraint=eastwest;whiteSpace=wrap;html=1;fontSize=14;" vertex="1" parent="jw8cfmfsAVehepTe2Xxh-34">
          <mxGeometry y="52" width="140" height="26" as="geometry" />
        </mxCell>
        <mxCell id="jw8cfmfsAVehepTe2Xxh-37" value="&lt;div&gt;&lt;br&gt;&lt;/div&gt;&lt;div&gt;&lt;br&gt;&lt;/div&gt;" style="text;strokeColor=none;fillColor=none;align=left;verticalAlign=top;spacingLeft=4;spacingRight=4;overflow=hidden;rotatable=0;points=[[0,0.5],[1,0.5]];portConstraint=eastwest;whiteSpace=wrap;html=1;" vertex="1" parent="jw8cfmfsAVehepTe2Xxh-34">
          <mxGeometry y="78" width="140" height="68" as="geometry" />
        </mxCell>
        <mxCell id="jw8cfmfsAVehepTe2Xxh-38" value="1..n" style="text;strokeColor=none;fillColor=none;align=left;verticalAlign=top;spacingLeft=4;spacingRight=4;overflow=hidden;rotatable=0;points=[[0,0.5],[1,0.5]];portConstraint=eastwest;whiteSpace=wrap;html=1;" vertex="1" parent="1">
          <mxGeometry x="448" y="227" width="40" height="26" as="geometry" />
        </mxCell>
        <mxCell id="jw8cfmfsAVehepTe2Xxh-39" value="1..1" style="text;strokeColor=none;fillColor=none;align=left;verticalAlign=top;spacingLeft=4;spacingRight=4;overflow=hidden;rotatable=0;points=[[0,0.5],[1,0.5]];portConstraint=eastwest;whiteSpace=wrap;html=1;" vertex="1" parent="1">
          <mxGeometry x="448" y="377" width="40" height="30" as="geometry" />
        </mxCell>
        <mxCell id="jw8cfmfsAVehepTe2Xxh-40" value="&lt;font style=&quot;font-size: 14px;&quot;&gt;located at&lt;/font&gt;" style="text;align=center;fontStyle=0;verticalAlign=middle;spacingLeft=3;spacingRight=3;strokeColor=none;rotatable=0;points=[[0,0.5],[1,0.5]];portConstraint=eastwest;html=1;" vertex="1" parent="1">
          <mxGeometry x="368" y="307" width="80" height="26" as="geometry" />
        </mxCell>
        <mxCell id="jw8cfmfsAVehepTe2Xxh-42" value="1..1" style="text;strokeColor=none;fillColor=none;align=left;verticalAlign=top;spacingLeft=4;spacingRight=4;overflow=hidden;rotatable=0;points=[[0,0.5],[1,0.5]];portConstraint=eastwest;whiteSpace=wrap;html=1;" vertex="1" parent="1">
          <mxGeometry x="148" y="377" width="40" height="26" as="geometry" />
        </mxCell>
        <mxCell id="jw8cfmfsAVehepTe2Xxh-43" value="0..n" style="text;strokeColor=none;fillColor=none;align=left;verticalAlign=top;spacingLeft=4;spacingRight=4;overflow=hidden;rotatable=0;points=[[0,0.5],[1,0.5]];portConstraint=eastwest;whiteSpace=wrap;html=1;" vertex="1" parent="1">
          <mxGeometry x="348" y="187" width="40" height="26" as="geometry" />
        </mxCell>
        <mxCell id="jw8cfmfsAVehepTe2Xxh-44" value="leads" style="text;align=center;fontStyle=0;verticalAlign=middle;spacingLeft=3;spacingRight=3;strokeColor=none;rotatable=0;points=[[0,0.5],[1,0.5]];portConstraint=eastwest;html=1;fontSize=14;" vertex="1" parent="1">
          <mxGeometry x="138" y="201" width="80" height="26" as="geometry" />
        </mxCell>
        <mxCell id="jw8cfmfsAVehepTe2Xxh-136" value="&lt;b&gt;&lt;font style=&quot;font-size: 15px;&quot;&gt;Store branch&lt;/font&gt;&lt;/b&gt;" style="swimlane;fontStyle=0;childLayout=stackLayout;horizontal=1;startSize=26;fillColor=none;horizontalStack=0;resizeParent=1;resizeParentMax=0;resizeLast=0;collapsible=1;marginBottom=0;whiteSpace=wrap;html=1;" vertex="1" parent="1">
          <mxGeometry x="1551" y="405" width="120" height="160" as="geometry" />
        </mxCell>
        <mxCell id="jw8cfmfsAVehepTe2Xxh-137" value="- name [0..*]&lt;br&gt;- has_warehouse" style="text;strokeColor=none;fillColor=none;align=left;verticalAlign=top;spacingLeft=4;spacingRight=4;overflow=hidden;rotatable=0;points=[[0,0.5],[1,0.5]];portConstraint=eastwest;whiteSpace=wrap;html=1;fontSize=14;" vertex="1" parent="jw8cfmfsAVehepTe2Xxh-136">
          <mxGeometry y="26" width="120" height="134" as="geometry" />
        </mxCell>
        <mxCell id="jw8cfmfsAVehepTe2Xxh-139" value="&lt;b&gt;&lt;font style=&quot;font-size: 15px;&quot;&gt;Address&lt;/font&gt;&lt;/b&gt;" style="swimlane;fontStyle=0;childLayout=stackLayout;horizontal=1;startSize=26;fillColor=none;horizontalStack=0;resizeParent=1;resizeParentMax=0;resizeLast=0;collapsible=1;marginBottom=0;whiteSpace=wrap;html=1;" vertex="1" parent="1">
          <mxGeometry x="1871" y="405" width="120" height="160" as="geometry" />
        </mxCell>
        <mxCell id="jw8cfmfsAVehepTe2Xxh-140" value="- city" style="text;strokeColor=none;fillColor=none;align=left;verticalAlign=top;spacingLeft=4;spacingRight=4;overflow=hidden;rotatable=0;points=[[0,0.5],[1,0.5]];portConstraint=eastwest;whiteSpace=wrap;html=1;fontSize=14;" vertex="1" parent="jw8cfmfsAVehepTe2Xxh-139">
          <mxGeometry y="26" width="120" height="26" as="geometry" />
        </mxCell>
        <mxCell id="jw8cfmfsAVehepTe2Xxh-141" value="- street" style="text;strokeColor=none;fillColor=none;align=left;verticalAlign=top;spacingLeft=4;spacingRight=4;overflow=hidden;rotatable=0;points=[[0,0.5],[1,0.5]];portConstraint=eastwest;whiteSpace=wrap;html=1;fontSize=14;" vertex="1" parent="jw8cfmfsAVehepTe2Xxh-139">
          <mxGeometry y="52" width="120" height="26" as="geometry" />
        </mxCell>
        <mxCell id="jw8cfmfsAVehepTe2Xxh-142" value="- zip_code" style="text;strokeColor=none;fillColor=none;align=left;verticalAlign=top;spacingLeft=4;spacingRight=4;overflow=hidden;rotatable=0;points=[[0,0.5],[1,0.5]];portConstraint=eastwest;whiteSpace=wrap;html=1;fontSize=14;" vertex="1" parent="jw8cfmfsAVehepTe2Xxh-139">
          <mxGeometry y="78" width="120" height="82" as="geometry" />
        </mxCell>
        <mxCell id="jw8cfmfsAVehepTe2Xxh-143" value="located at" style="text;align=center;fontStyle=0;verticalAlign=middle;spacingLeft=3;spacingRight=3;strokeColor=none;rotatable=0;points=[[0,0.5],[1,0.5]];portConstraint=eastwest;html=1;fontSize=14;" vertex="1" parent="1">
          <mxGeometry x="1720" y="490" width="80" height="26" as="geometry" />
        </mxCell>
        <mxCell id="jw8cfmfsAVehepTe2Xxh-144" value="0..1" style="text;strokeColor=none;fillColor=none;align=left;verticalAlign=top;spacingLeft=4;spacingRight=4;overflow=hidden;rotatable=0;points=[[0,0.5],[1,0.5]];portConstraint=eastwest;whiteSpace=wrap;html=1;" vertex="1" parent="1">
          <mxGeometry x="1671" y="479" width="40" height="26" as="geometry" />
        </mxCell>
        <mxCell id="jw8cfmfsAVehepTe2Xxh-145" value="1..1" style="text;strokeColor=none;fillColor=none;align=left;verticalAlign=top;spacingLeft=4;spacingRight=4;overflow=hidden;rotatable=0;points=[[0,0.5],[1,0.5]];portConstraint=eastwest;whiteSpace=wrap;html=1;" vertex="1" parent="1">
          <mxGeometry x="1831" y="479" width="40" height="26" as="geometry" />
        </mxCell>
        <mxCell id="jw8cfmfsAVehepTe2Xxh-146" value="&lt;b&gt;&lt;font style=&quot;font-size: 15px;&quot;&gt;Customer&lt;/font&gt;&lt;/b&gt;" style="swimlane;fontStyle=0;childLayout=stackLayout;horizontal=1;startSize=26;fillColor=none;horizontalStack=0;resizeParent=1;resizeParentMax=0;resizeLast=0;collapsible=1;marginBottom=0;whiteSpace=wrap;html=1;" vertex="1" parent="1">
          <mxGeometry x="1551" y="764" width="120" height="200" as="geometry" />
        </mxCell>
        <mxCell id="jw8cfmfsAVehepTe2Xxh-147" value="-&amp;nbsp;given_name" style="text;strokeColor=none;fillColor=none;align=left;verticalAlign=top;spacingLeft=4;spacingRight=4;overflow=hidden;rotatable=0;points=[[0,0.5],[1,0.5]];portConstraint=eastwest;whiteSpace=wrap;html=1;fontSize=14;" vertex="1" parent="jw8cfmfsAVehepTe2Xxh-146">
          <mxGeometry y="26" width="120" height="26" as="geometry" />
        </mxCell>
        <mxCell id="jw8cfmfsAVehepTe2Xxh-148" value="-&amp;nbsp;family_name" style="text;strokeColor=none;fillColor=none;align=left;verticalAlign=top;spacingLeft=4;spacingRight=4;overflow=hidden;rotatable=0;points=[[0,0.5],[1,0.5]];portConstraint=eastwest;whiteSpace=wrap;html=1;fontSize=14;" vertex="1" parent="jw8cfmfsAVehepTe2Xxh-146">
          <mxGeometry y="52" width="120" height="26" as="geometry" />
        </mxCell>
        <mxCell id="jw8cfmfsAVehepTe2Xxh-149" value="- birth_date" style="text;strokeColor=none;fillColor=none;align=left;verticalAlign=top;spacingLeft=4;spacingRight=4;overflow=hidden;rotatable=0;points=[[0,0.5],[1,0.5]];portConstraint=eastwest;whiteSpace=wrap;html=1;fontSize=14;" vertex="1" parent="jw8cfmfsAVehepTe2Xxh-146">
          <mxGeometry y="78" width="120" height="26" as="geometry" />
        </mxCell>
        <mxCell id="jw8cfmfsAVehepTe2Xxh-150" value="-&amp;nbsp;phone_number" style="text;strokeColor=none;fillColor=none;align=left;verticalAlign=top;spacingLeft=4;spacingRight=4;overflow=hidden;rotatable=0;points=[[0,0.5],[1,0.5]];portConstraint=eastwest;whiteSpace=wrap;html=1;fontSize=14;" vertex="1" parent="jw8cfmfsAVehepTe2Xxh-146">
          <mxGeometry y="104" width="120" height="96" as="geometry" />
        </mxCell>
        <mxCell id="jw8cfmfsAVehepTe2Xxh-151" value="1..1" style="text;strokeColor=none;fillColor=none;align=left;verticalAlign=top;spacingLeft=4;spacingRight=4;overflow=hidden;rotatable=0;points=[[0,0.5],[1,0.5]];portConstraint=eastwest;whiteSpace=wrap;html=1;" vertex="1" parent="1">
          <mxGeometry x="1611" y="565" width="40" height="26" as="geometry" />
        </mxCell>
        <mxCell id="jw8cfmfsAVehepTe2Xxh-153" value="0..n" style="text;strokeColor=none;fillColor=none;align=left;verticalAlign=top;spacingLeft=4;spacingRight=4;overflow=hidden;rotatable=0;points=[[0,0.5],[1,0.5]];portConstraint=eastwest;whiteSpace=wrap;html=1;" vertex="1" parent="1">
          <mxGeometry x="1611" y="738" width="40" height="26" as="geometry" />
        </mxCell>
        <mxCell id="jw8cfmfsAVehepTe2Xxh-154" value="shops at" style="text;align=center;fontStyle=0;verticalAlign=middle;spacingLeft=3;spacingRight=3;strokeColor=none;rotatable=0;points=[[0,0.5],[1,0.5]];portConstraint=eastwest;html=1;fontSize=14;" vertex="1" parent="1">
          <mxGeometry x="1611" y="656" width="80" height="26" as="geometry" />
        </mxCell>
        <mxCell id="jw8cfmfsAVehepTe2Xxh-155" value="&lt;b&gt;&lt;font style=&quot;font-size: 15px;&quot;&gt;Loyalty Card&lt;/font&gt;&lt;/b&gt;" style="swimlane;fontStyle=0;childLayout=stackLayout;horizontal=1;startSize=26;fillColor=none;horizontalStack=0;resizeParent=1;resizeParentMax=0;resizeLast=0;collapsible=1;marginBottom=0;whiteSpace=wrap;html=1;" vertex="1" parent="1">
          <mxGeometry x="1251" y="764" width="120" height="200" as="geometry" />
        </mxCell>
        <mxCell id="jw8cfmfsAVehepTe2Xxh-156" value="-&amp;nbsp;number" style="text;strokeColor=none;fillColor=none;align=left;verticalAlign=top;spacingLeft=4;spacingRight=4;overflow=hidden;rotatable=0;points=[[0,0.5],[1,0.5]];portConstraint=eastwest;whiteSpace=wrap;html=1;fontSize=14;" vertex="1" parent="jw8cfmfsAVehepTe2Xxh-155">
          <mxGeometry y="26" width="120" height="26" as="geometry" />
        </mxCell>
        <mxCell id="jw8cfmfsAVehepTe2Xxh-157" value="-&amp;nbsp;points" style="text;strokeColor=none;fillColor=none;align=left;verticalAlign=top;spacingLeft=4;spacingRight=4;overflow=hidden;rotatable=0;points=[[0,0.5],[1,0.5]];portConstraint=eastwest;whiteSpace=wrap;html=1;fontSize=14;" vertex="1" parent="jw8cfmfsAVehepTe2Xxh-155">
          <mxGeometry y="52" width="120" height="148" as="geometry" />
        </mxCell>
        <mxCell id="jw8cfmfsAVehepTe2Xxh-159" value="0..1" style="text;strokeColor=none;fillColor=none;align=left;verticalAlign=top;spacingLeft=4;spacingRight=4;overflow=hidden;rotatable=0;points=[[0,0.5],[1,0.5]];portConstraint=eastwest;whiteSpace=wrap;html=1;" vertex="1" parent="1">
          <mxGeometry x="1371" y="879" width="40" height="26" as="geometry" />
        </mxCell>
        <mxCell id="jw8cfmfsAVehepTe2Xxh-160" value="1..1" style="text;strokeColor=none;fillColor=none;align=left;verticalAlign=top;spacingLeft=4;spacingRight=4;overflow=hidden;rotatable=0;points=[[0,0.5],[1,0.5]];portConstraint=eastwest;whiteSpace=wrap;html=1;" vertex="1" parent="1">
          <mxGeometry x="1511" y="879" width="40" height="26" as="geometry" />
        </mxCell>
        <mxCell id="jw8cfmfsAVehepTe2Xxh-161" value="has&amp;nbsp;loyalty card" style="text;align=center;fontStyle=0;verticalAlign=middle;spacingLeft=3;spacingRight=3;strokeColor=none;rotatable=0;points=[[0,0.5],[1,0.5]];portConstraint=eastwest;html=1;fontSize=14;" vertex="1" parent="1">
          <mxGeometry x="1421" y="881" width="80" height="26" as="geometry" />
        </mxCell>
        <mxCell id="jw8cfmfsAVehepTe2Xxh-162" value="&lt;b&gt;&lt;font style=&quot;font-size: 15px;&quot;&gt;Employee&lt;/font&gt;&lt;/b&gt;" style="swimlane;fontStyle=0;childLayout=stackLayout;horizontal=1;startSize=26;fillColor=none;horizontalStack=0;resizeParent=1;resizeParentMax=0;resizeLast=0;collapsible=1;marginBottom=0;whiteSpace=wrap;html=1;" vertex="1" parent="1">
          <mxGeometry x="1271" y="405" width="120" height="160" as="geometry" />
        </mxCell>
        <mxCell id="jw8cfmfsAVehepTe2Xxh-163" value="- given_name" style="text;strokeColor=none;fillColor=none;align=left;verticalAlign=top;spacingLeft=4;spacingRight=4;overflow=hidden;rotatable=0;points=[[0,0.5],[1,0.5]];portConstraint=eastwest;whiteSpace=wrap;html=1;fontSize=14;" vertex="1" parent="jw8cfmfsAVehepTe2Xxh-162">
          <mxGeometry y="26" width="120" height="26" as="geometry" />
        </mxCell>
        <mxCell id="jw8cfmfsAVehepTe2Xxh-164" value="-&amp;nbsp;family_name" style="text;strokeColor=none;fillColor=none;align=left;verticalAlign=top;spacingLeft=4;spacingRight=4;overflow=hidden;rotatable=0;points=[[0,0.5],[1,0.5]];portConstraint=eastwest;whiteSpace=wrap;html=1;fontSize=14;" vertex="1" parent="jw8cfmfsAVehepTe2Xxh-162">
          <mxGeometry y="52" width="120" height="108" as="geometry" />
        </mxCell>
        <mxCell id="jw8cfmfsAVehepTe2Xxh-166" value="0..n" style="text;strokeColor=none;fillColor=none;align=left;verticalAlign=top;spacingLeft=4;spacingRight=4;overflow=hidden;rotatable=0;points=[[0,0.5],[1,0.5]];portConstraint=eastwest;whiteSpace=wrap;html=1;" vertex="1" parent="1">
          <mxGeometry x="1391" y="479" width="40" height="26" as="geometry" />
        </mxCell>
        <mxCell id="jw8cfmfsAVehepTe2Xxh-167" value="1..1" style="text;strokeColor=none;fillColor=none;align=left;verticalAlign=top;spacingLeft=4;spacingRight=4;overflow=hidden;rotatable=0;points=[[0,0.5],[1,0.5]];portConstraint=eastwest;whiteSpace=wrap;html=1;" vertex="1" parent="1">
          <mxGeometry x="1511" y="479" width="40" height="26" as="geometry" />
        </mxCell>
        <mxCell id="jw8cfmfsAVehepTe2Xxh-168" value="works at" style="text;align=center;fontStyle=0;verticalAlign=middle;spacingLeft=3;spacingRight=3;strokeColor=none;rotatable=0;points=[[0,0.5],[1,0.5]];portConstraint=eastwest;html=1;fontSize=14;" vertex="1" parent="1">
          <mxGeometry x="1421" y="482" width="80" height="26" as="geometry" />
        </mxCell>
        <mxCell id="jw8cfmfsAVehepTe2Xxh-169" value="&lt;b&gt;&lt;font style=&quot;font-size: 15px;&quot;&gt;Cash Register&lt;/font&gt;&lt;/b&gt;" style="swimlane;fontStyle=0;childLayout=stackLayout;horizontal=1;startSize=26;fillColor=none;horizontalStack=0;resizeParent=1;resizeParentMax=0;resizeLast=0;collapsible=1;marginBottom=0;whiteSpace=wrap;html=1;" vertex="1" parent="1">
          <mxGeometry x="1551" y="105" width="140" height="146" as="geometry" />
        </mxCell>
        <mxCell id="jw8cfmfsAVehepTe2Xxh-170" value="-&amp;nbsp;number" style="text;strokeColor=none;fillColor=none;align=left;verticalAlign=top;spacingLeft=4;spacingRight=4;overflow=hidden;rotatable=0;points=[[0,0.5],[1,0.5]];portConstraint=eastwest;whiteSpace=wrap;html=1;fontSize=14;" vertex="1" parent="jw8cfmfsAVehepTe2Xxh-169">
          <mxGeometry y="26" width="140" height="26" as="geometry" />
        </mxCell>
        <mxCell id="jw8cfmfsAVehepTe2Xxh-171" value="- is_self_checkout" style="text;strokeColor=none;fillColor=none;align=left;verticalAlign=top;spacingLeft=4;spacingRight=4;overflow=hidden;rotatable=0;points=[[0,0.5],[1,0.5]];portConstraint=eastwest;whiteSpace=wrap;html=1;fontSize=14;" vertex="1" parent="jw8cfmfsAVehepTe2Xxh-169">
          <mxGeometry y="52" width="140" height="26" as="geometry" />
        </mxCell>
        <mxCell id="jw8cfmfsAVehepTe2Xxh-172" value="&lt;div&gt;&lt;br&gt;&lt;/div&gt;&lt;div&gt;&lt;br&gt;&lt;/div&gt;" style="text;strokeColor=none;fillColor=none;align=left;verticalAlign=top;spacingLeft=4;spacingRight=4;overflow=hidden;rotatable=0;points=[[0,0.5],[1,0.5]];portConstraint=eastwest;whiteSpace=wrap;html=1;" vertex="1" parent="jw8cfmfsAVehepTe2Xxh-169">
          <mxGeometry y="78" width="140" height="68" as="geometry" />
        </mxCell>
        <mxCell id="jw8cfmfsAVehepTe2Xxh-173" value="1..n" style="text;strokeColor=none;fillColor=none;align=left;verticalAlign=top;spacingLeft=4;spacingRight=4;overflow=hidden;rotatable=0;points=[[0,0.5],[1,0.5]];portConstraint=eastwest;whiteSpace=wrap;html=1;" vertex="1" parent="1">
          <mxGeometry x="1611" y="225" width="40" height="26" as="geometry" />
        </mxCell>
        <mxCell id="jw8cfmfsAVehepTe2Xxh-174" value="1..1" style="text;strokeColor=none;fillColor=none;align=left;verticalAlign=top;spacingLeft=4;spacingRight=4;overflow=hidden;rotatable=0;points=[[0,0.5],[1,0.5]];portConstraint=eastwest;whiteSpace=wrap;html=1;" vertex="1" parent="1">
          <mxGeometry x="1611" y="375" width="40" height="30" as="geometry" />
        </mxCell>
        <mxCell id="jw8cfmfsAVehepTe2Xxh-175" value="&lt;font style=&quot;font-size: 14px;&quot;&gt;located at&lt;/font&gt;" style="text;align=center;fontStyle=0;verticalAlign=middle;spacingLeft=3;spacingRight=3;strokeColor=none;rotatable=0;points=[[0,0.5],[1,0.5]];portConstraint=eastwest;html=1;" vertex="1" parent="1">
          <mxGeometry x="1511" y="307" width="80" height="26" as="geometry" />
        </mxCell>
        <mxCell id="jw8cfmfsAVehepTe2Xxh-177" value="1..1" style="text;strokeColor=none;fillColor=none;align=left;verticalAlign=top;spacingLeft=4;spacingRight=4;overflow=hidden;rotatable=0;points=[[0,0.5],[1,0.5]];portConstraint=eastwest;whiteSpace=wrap;html=1;" vertex="1" parent="1">
          <mxGeometry x="1311" y="375" width="40" height="26" as="geometry" />
        </mxCell>
        <mxCell id="jw8cfmfsAVehepTe2Xxh-178" value="0..n" style="text;strokeColor=none;fillColor=none;align=left;verticalAlign=top;spacingLeft=4;spacingRight=4;overflow=hidden;rotatable=0;points=[[0,0.5],[1,0.5]];portConstraint=eastwest;whiteSpace=wrap;html=1;" vertex="1" parent="1">
          <mxGeometry x="1511" y="185" width="40" height="26" as="geometry" />
        </mxCell>
        <mxCell id="jw8cfmfsAVehepTe2Xxh-179" value="leads" style="text;align=center;fontStyle=0;verticalAlign=middle;spacingLeft=3;spacingRight=3;strokeColor=none;rotatable=0;points=[[0,0.5],[1,0.5]];portConstraint=eastwest;html=1;fontSize=14;" vertex="1" parent="1">
          <mxGeometry x="1301" y="199" width="80" height="26" as="geometry" />
        </mxCell>
        <mxCell id="jw8cfmfsAVehepTe2Xxh-180" value="" style="endArrow=classic;html=1;rounded=0;entryX=0.383;entryY=-0.012;entryDx=0;entryDy=0;entryPerimeter=0;exitX=0.323;exitY=1.047;exitDx=0;exitDy=0;exitPerimeter=0;" edge="1" parent="1" source="jw8cfmfsAVehepTe2Xxh-172" target="jw8cfmfsAVehepTe2Xxh-136">
          <mxGeometry width="50" height="50" relative="1" as="geometry">
            <mxPoint x="1621" y="385" as="sourcePoint" />
            <mxPoint x="1671" y="335" as="targetPoint" />
          </mxGeometry>
        </mxCell>
        <mxCell id="jw8cfmfsAVehepTe2Xxh-181" value="" style="endArrow=classic;html=1;rounded=0;exitX=-0.029;exitY=1.214;exitDx=0;exitDy=0;exitPerimeter=0;entryX=0.5;entryY=0;entryDx=0;entryDy=0;" edge="1" parent="1" source="jw8cfmfsAVehepTe2Xxh-38" target="jw8cfmfsAVehepTe2Xxh-1">
          <mxGeometry width="50" height="50" relative="1" as="geometry">
            <mxPoint x="720" y="380" as="sourcePoint" />
            <mxPoint x="560" y="320" as="targetPoint" />
          </mxGeometry>
        </mxCell>
        <mxCell id="jw8cfmfsAVehepTe2Xxh-182" value="" style="endArrow=classic;html=1;rounded=0;exitX=1.02;exitY=0.339;exitDx=0;exitDy=0;exitPerimeter=0;entryX=-0.002;entryY=0.818;entryDx=0;entryDy=0;entryPerimeter=0;" edge="1" parent="1" source="jw8cfmfsAVehepTe2Xxh-2" target="jw8cfmfsAVehepTe2Xxh-6">
          <mxGeometry width="50" height="50" relative="1" as="geometry">
            <mxPoint x="720" y="440" as="sourcePoint" />
            <mxPoint x="770" y="390" as="targetPoint" />
          </mxGeometry>
        </mxCell>
        <mxCell id="jw8cfmfsAVehepTe2Xxh-183" value="" style="endArrow=classic;html=1;rounded=0;exitX=1.043;exitY=0.176;exitDx=0;exitDy=0;exitPerimeter=0;" edge="1" parent="1" source="jw8cfmfsAVehepTe2Xxh-29">
          <mxGeometry width="50" height="50" relative="1" as="geometry">
            <mxPoint x="385.48" y="477.25799999999987" as="sourcePoint" />
            <mxPoint x="385" y="478" as="targetPoint" />
          </mxGeometry>
        </mxCell>
        <mxCell id="jw8cfmfsAVehepTe2Xxh-184" value="" style="endArrow=classic;html=1;rounded=0;entryX=0.25;entryY=0;entryDx=0;entryDy=0;" edge="1" parent="1" target="jw8cfmfsAVehepTe2Xxh-27">
          <mxGeometry width="50" height="50" relative="1" as="geometry">
            <mxPoint x="380" y="180" as="sourcePoint" />
            <mxPoint x="160" y="360" as="targetPoint" />
            <Array as="points">
              <mxPoint x="138" y="180" />
            </Array>
          </mxGeometry>
        </mxCell>
        <mxCell id="jw8cfmfsAVehepTe2Xxh-185" value="" style="endArrow=classic;html=1;rounded=0;entryX=0.25;entryY=0;entryDx=0;entryDy=0;exitX=0.248;exitY=1.022;exitDx=0;exitDy=0;exitPerimeter=0;" edge="1" parent="1" source="jw8cfmfsAVehepTe2Xxh-2" target="jw8cfmfsAVehepTe2Xxh-11">
          <mxGeometry width="50" height="50" relative="1" as="geometry">
            <mxPoint x="580" y="680" as="sourcePoint" />
            <mxPoint x="630" y="630" as="targetPoint" />
          </mxGeometry>
        </mxCell>
        <mxCell id="jw8cfmfsAVehepTe2Xxh-186" value="" style="endArrow=classic;html=1;rounded=0;entryX=1.022;entryY=0.423;entryDx=0;entryDy=0;entryPerimeter=0;exitX=0.872;exitY=-0.052;exitDx=0;exitDy=0;exitPerimeter=0;" edge="1" parent="1" source="jw8cfmfsAVehepTe2Xxh-25" target="jw8cfmfsAVehepTe2Xxh-22">
          <mxGeometry width="50" height="50" relative="1" as="geometry">
            <mxPoint x="380" y="870" as="sourcePoint" />
            <mxPoint x="630" y="730" as="targetPoint" />
          </mxGeometry>
        </mxCell>
        <mxCell id="jw8cfmfsAVehepTe2Xxh-187" value="" style="endArrow=classic;html=1;rounded=0;exitX=0.25;exitY=0;exitDx=0;exitDy=0;" edge="1" parent="1" source="jw8cfmfsAVehepTe2Xxh-162">
          <mxGeometry width="50" height="50" relative="1" as="geometry">
            <mxPoint x="1580" y="551" as="sourcePoint" />
            <mxPoint x="1550" y="161" as="targetPoint" />
            <Array as="points">
              <mxPoint x="1301" y="161" />
            </Array>
          </mxGeometry>
        </mxCell>
        <mxCell id="jw8cfmfsAVehepTe2Xxh-188" value="" style="endArrow=classic;html=1;rounded=0;exitX=1.027;exitY=0.135;exitDx=0;exitDy=0;exitPerimeter=0;entryX=-0.024;entryY=0.297;entryDx=0;entryDy=0;entryPerimeter=0;" edge="1" parent="1" source="jw8cfmfsAVehepTe2Xxh-164" target="jw8cfmfsAVehepTe2Xxh-137">
          <mxGeometry width="50" height="50" relative="1" as="geometry">
            <mxPoint x="1540" y="411" as="sourcePoint" />
            <mxPoint x="1590" y="361" as="targetPoint" />
          </mxGeometry>
        </mxCell>
        <mxCell id="jw8cfmfsAVehepTe2Xxh-189" value="" style="endArrow=classic;html=1;rounded=0;exitX=1.04;exitY=0.324;exitDx=0;exitDy=0;exitPerimeter=0;entryX=-0.021;entryY=0.667;entryDx=0;entryDy=0;entryPerimeter=0;" edge="1" parent="1" source="jw8cfmfsAVehepTe2Xxh-137" target="jw8cfmfsAVehepTe2Xxh-141">
          <mxGeometry width="50" height="50" relative="1" as="geometry">
            <mxPoint x="1200" y="531" as="sourcePoint" />
            <mxPoint x="1860" y="471" as="targetPoint" />
          </mxGeometry>
        </mxCell>
        <mxCell id="jw8cfmfsAVehepTe2Xxh-190" value="" style="endArrow=classic;html=1;rounded=0;entryX=0.453;entryY=1.014;entryDx=0;entryDy=0;entryPerimeter=0;exitX=0.448;exitY=-0.007;exitDx=0;exitDy=0;exitPerimeter=0;" edge="1" parent="1" source="jw8cfmfsAVehepTe2Xxh-146" target="jw8cfmfsAVehepTe2Xxh-137">
          <mxGeometry width="50" height="50" relative="1" as="geometry">
            <mxPoint x="1550" y="701" as="sourcePoint" />
            <mxPoint x="1610" y="761" as="targetPoint" />
          </mxGeometry>
        </mxCell>
        <mxCell id="jw8cfmfsAVehepTe2Xxh-191" value="" style="endArrow=classic;html=1;rounded=0;exitX=0.068;exitY=-0.049;exitDx=0;exitDy=0;exitPerimeter=0;entryX=0.92;entryY=-0.074;entryDx=0;entryDy=0;entryPerimeter=0;" edge="1" parent="1" source="jw8cfmfsAVehepTe2Xxh-159" target="jw8cfmfsAVehepTe2Xxh-160">
          <mxGeometry width="50" height="50" relative="1" as="geometry">
            <mxPoint x="1547" y="866.41" as="sourcePoint" />
            <mxPoint x="1520" y="841" as="targetPoint" />
          </mxGeometry>
        </mxCell>
        <mxCell id="jw8cfmfsAVehepTe2Xxh-193" value="&lt;b&gt;&lt;font style=&quot;font-size: 15px;&quot;&gt;Store branch&lt;/font&gt;&lt;/b&gt;" style="swimlane;fontStyle=0;childLayout=stackLayout;horizontal=1;startSize=26;fillColor=none;horizontalStack=0;resizeParent=1;resizeParentMax=0;resizeLast=0;collapsible=1;marginBottom=0;whiteSpace=wrap;html=1;" vertex="1" parent="1">
          <mxGeometry x="1561" y="1446" width="120" height="160" as="geometry" />
        </mxCell>
        <mxCell id="jw8cfmfsAVehepTe2Xxh-194" value="- name [0..*]&lt;br&gt;- has_warehouse" style="text;strokeColor=none;fillColor=none;align=left;verticalAlign=top;spacingLeft=4;spacingRight=4;overflow=hidden;rotatable=0;points=[[0,0.5],[1,0.5]];portConstraint=eastwest;whiteSpace=wrap;html=1;fontSize=14;" vertex="1" parent="jw8cfmfsAVehepTe2Xxh-193">
          <mxGeometry y="26" width="120" height="134" as="geometry" />
        </mxCell>
        <mxCell id="jw8cfmfsAVehepTe2Xxh-195" value="&lt;b&gt;&lt;font style=&quot;font-size: 15px;&quot;&gt;Address&lt;/font&gt;&lt;/b&gt;" style="swimlane;fontStyle=0;childLayout=stackLayout;horizontal=1;startSize=26;fillColor=none;horizontalStack=0;resizeParent=1;resizeParentMax=0;resizeLast=0;collapsible=1;marginBottom=0;whiteSpace=wrap;html=1;" vertex="1" parent="1">
          <mxGeometry x="1881" y="1446" width="120" height="160" as="geometry" />
        </mxCell>
        <mxCell id="jw8cfmfsAVehepTe2Xxh-196" value="- city" style="text;strokeColor=none;fillColor=none;align=left;verticalAlign=top;spacingLeft=4;spacingRight=4;overflow=hidden;rotatable=0;points=[[0,0.5],[1,0.5]];portConstraint=eastwest;whiteSpace=wrap;html=1;fontSize=14;" vertex="1" parent="jw8cfmfsAVehepTe2Xxh-195">
          <mxGeometry y="26" width="120" height="26" as="geometry" />
        </mxCell>
        <mxCell id="jw8cfmfsAVehepTe2Xxh-197" value="- street" style="text;strokeColor=none;fillColor=none;align=left;verticalAlign=top;spacingLeft=4;spacingRight=4;overflow=hidden;rotatable=0;points=[[0,0.5],[1,0.5]];portConstraint=eastwest;whiteSpace=wrap;html=1;fontSize=14;" vertex="1" parent="jw8cfmfsAVehepTe2Xxh-195">
          <mxGeometry y="52" width="120" height="26" as="geometry" />
        </mxCell>
        <mxCell id="jw8cfmfsAVehepTe2Xxh-198" value="- zip_code" style="text;strokeColor=none;fillColor=none;align=left;verticalAlign=top;spacingLeft=4;spacingRight=4;overflow=hidden;rotatable=0;points=[[0,0.5],[1,0.5]];portConstraint=eastwest;whiteSpace=wrap;html=1;fontSize=14;" vertex="1" parent="jw8cfmfsAVehepTe2Xxh-195">
          <mxGeometry y="78" width="120" height="82" as="geometry" />
        </mxCell>
        <mxCell id="jw8cfmfsAVehepTe2Xxh-199" value="located at" style="text;align=center;fontStyle=0;verticalAlign=middle;spacingLeft=3;spacingRight=3;strokeColor=none;rotatable=0;points=[[0,0.5],[1,0.5]];portConstraint=eastwest;html=1;fontSize=14;" vertex="1" parent="1">
          <mxGeometry x="1730" y="1531" width="80" height="26" as="geometry" />
        </mxCell>
        <mxCell id="jw8cfmfsAVehepTe2Xxh-200" value="0..1" style="text;strokeColor=none;fillColor=none;align=left;verticalAlign=top;spacingLeft=4;spacingRight=4;overflow=hidden;rotatable=0;points=[[0,0.5],[1,0.5]];portConstraint=eastwest;whiteSpace=wrap;html=1;" vertex="1" parent="1">
          <mxGeometry x="1681" y="1520" width="40" height="26" as="geometry" />
        </mxCell>
        <mxCell id="jw8cfmfsAVehepTe2Xxh-201" value="1..1" style="text;strokeColor=none;fillColor=none;align=left;verticalAlign=top;spacingLeft=4;spacingRight=4;overflow=hidden;rotatable=0;points=[[0,0.5],[1,0.5]];portConstraint=eastwest;whiteSpace=wrap;html=1;" vertex="1" parent="1">
          <mxGeometry x="1841" y="1520" width="40" height="26" as="geometry" />
        </mxCell>
        <mxCell id="jw8cfmfsAVehepTe2Xxh-202" value="&lt;b&gt;&lt;font style=&quot;font-size: 15px;&quot;&gt;Customer&lt;/font&gt;&lt;/b&gt;" style="swimlane;fontStyle=0;childLayout=stackLayout;horizontal=1;startSize=26;fillColor=none;horizontalStack=0;resizeParent=1;resizeParentMax=0;resizeLast=0;collapsible=1;marginBottom=0;whiteSpace=wrap;html=1;" vertex="1" parent="1">
          <mxGeometry x="1561" y="1805" width="120" height="200" as="geometry" />
        </mxCell>
        <mxCell id="jw8cfmfsAVehepTe2Xxh-203" value="-&amp;nbsp;given_name" style="text;strokeColor=none;fillColor=none;align=left;verticalAlign=top;spacingLeft=4;spacingRight=4;overflow=hidden;rotatable=0;points=[[0,0.5],[1,0.5]];portConstraint=eastwest;whiteSpace=wrap;html=1;fontSize=14;" vertex="1" parent="jw8cfmfsAVehepTe2Xxh-202">
          <mxGeometry y="26" width="120" height="26" as="geometry" />
        </mxCell>
        <mxCell id="jw8cfmfsAVehepTe2Xxh-204" value="-&amp;nbsp;family_name" style="text;strokeColor=none;fillColor=none;align=left;verticalAlign=top;spacingLeft=4;spacingRight=4;overflow=hidden;rotatable=0;points=[[0,0.5],[1,0.5]];portConstraint=eastwest;whiteSpace=wrap;html=1;fontSize=14;" vertex="1" parent="jw8cfmfsAVehepTe2Xxh-202">
          <mxGeometry y="52" width="120" height="26" as="geometry" />
        </mxCell>
        <mxCell id="jw8cfmfsAVehepTe2Xxh-205" value="- birth_date" style="text;strokeColor=none;fillColor=none;align=left;verticalAlign=top;spacingLeft=4;spacingRight=4;overflow=hidden;rotatable=0;points=[[0,0.5],[1,0.5]];portConstraint=eastwest;whiteSpace=wrap;html=1;fontSize=14;" vertex="1" parent="jw8cfmfsAVehepTe2Xxh-202">
          <mxGeometry y="78" width="120" height="26" as="geometry" />
        </mxCell>
        <mxCell id="jw8cfmfsAVehepTe2Xxh-206" value="-&amp;nbsp;phone_number" style="text;strokeColor=none;fillColor=none;align=left;verticalAlign=top;spacingLeft=4;spacingRight=4;overflow=hidden;rotatable=0;points=[[0,0.5],[1,0.5]];portConstraint=eastwest;whiteSpace=wrap;html=1;fontSize=14;" vertex="1" parent="jw8cfmfsAVehepTe2Xxh-202">
          <mxGeometry y="104" width="120" height="96" as="geometry" />
        </mxCell>
        <mxCell id="jw8cfmfsAVehepTe2Xxh-207" value="1..1" style="text;strokeColor=none;fillColor=none;align=left;verticalAlign=top;spacingLeft=4;spacingRight=4;overflow=hidden;rotatable=0;points=[[0,0.5],[1,0.5]];portConstraint=eastwest;whiteSpace=wrap;html=1;" vertex="1" parent="1">
          <mxGeometry x="1621" y="1606" width="40" height="26" as="geometry" />
        </mxCell>
        <mxCell id="jw8cfmfsAVehepTe2Xxh-208" value="0..n" style="text;strokeColor=none;fillColor=none;align=left;verticalAlign=top;spacingLeft=4;spacingRight=4;overflow=hidden;rotatable=0;points=[[0,0.5],[1,0.5]];portConstraint=eastwest;whiteSpace=wrap;html=1;" vertex="1" parent="1">
          <mxGeometry x="1621" y="1779" width="40" height="26" as="geometry" />
        </mxCell>
        <mxCell id="jw8cfmfsAVehepTe2Xxh-209" value="shops at" style="text;align=center;fontStyle=0;verticalAlign=middle;spacingLeft=3;spacingRight=3;strokeColor=none;rotatable=0;points=[[0,0.5],[1,0.5]];portConstraint=eastwest;html=1;fontSize=14;" vertex="1" parent="1">
          <mxGeometry x="1621" y="1697" width="80" height="26" as="geometry" />
        </mxCell>
        <mxCell id="jw8cfmfsAVehepTe2Xxh-210" value="&lt;b&gt;&lt;font style=&quot;font-size: 15px;&quot;&gt;Loyalty Card&lt;/font&gt;&lt;/b&gt;" style="swimlane;fontStyle=0;childLayout=stackLayout;horizontal=1;startSize=26;fillColor=none;horizontalStack=0;resizeParent=1;resizeParentMax=0;resizeLast=0;collapsible=1;marginBottom=0;whiteSpace=wrap;html=1;" vertex="1" parent="1">
          <mxGeometry x="1261" y="1805" width="120" height="200" as="geometry" />
        </mxCell>
        <mxCell id="jw8cfmfsAVehepTe2Xxh-211" value="-&amp;nbsp;number" style="text;strokeColor=none;fillColor=none;align=left;verticalAlign=top;spacingLeft=4;spacingRight=4;overflow=hidden;rotatable=0;points=[[0,0.5],[1,0.5]];portConstraint=eastwest;whiteSpace=wrap;html=1;fontSize=14;" vertex="1" parent="jw8cfmfsAVehepTe2Xxh-210">
          <mxGeometry y="26" width="120" height="26" as="geometry" />
        </mxCell>
        <mxCell id="jw8cfmfsAVehepTe2Xxh-212" value="-&amp;nbsp;points" style="text;strokeColor=none;fillColor=none;align=left;verticalAlign=top;spacingLeft=4;spacingRight=4;overflow=hidden;rotatable=0;points=[[0,0.5],[1,0.5]];portConstraint=eastwest;whiteSpace=wrap;html=1;fontSize=14;" vertex="1" parent="jw8cfmfsAVehepTe2Xxh-210">
          <mxGeometry y="52" width="120" height="148" as="geometry" />
        </mxCell>
        <mxCell id="jw8cfmfsAVehepTe2Xxh-213" value="0..1" style="text;strokeColor=none;fillColor=none;align=left;verticalAlign=top;spacingLeft=4;spacingRight=4;overflow=hidden;rotatable=0;points=[[0,0.5],[1,0.5]];portConstraint=eastwest;whiteSpace=wrap;html=1;" vertex="1" parent="1">
          <mxGeometry x="1381" y="1920" width="40" height="26" as="geometry" />
        </mxCell>
        <mxCell id="jw8cfmfsAVehepTe2Xxh-214" value="1..1" style="text;strokeColor=none;fillColor=none;align=left;verticalAlign=top;spacingLeft=4;spacingRight=4;overflow=hidden;rotatable=0;points=[[0,0.5],[1,0.5]];portConstraint=eastwest;whiteSpace=wrap;html=1;" vertex="1" parent="1">
          <mxGeometry x="1521" y="1920" width="40" height="26" as="geometry" />
        </mxCell>
        <mxCell id="jw8cfmfsAVehepTe2Xxh-215" value="has&amp;nbsp;loyalty card" style="text;align=center;fontStyle=0;verticalAlign=middle;spacingLeft=3;spacingRight=3;strokeColor=none;rotatable=0;points=[[0,0.5],[1,0.5]];portConstraint=eastwest;html=1;fontSize=14;" vertex="1" parent="1">
          <mxGeometry x="1431" y="1922" width="80" height="26" as="geometry" />
        </mxCell>
        <mxCell id="jw8cfmfsAVehepTe2Xxh-216" value="&lt;b&gt;&lt;font style=&quot;font-size: 15px;&quot;&gt;Employee&lt;/font&gt;&lt;/b&gt;" style="swimlane;fontStyle=0;childLayout=stackLayout;horizontal=1;startSize=26;fillColor=none;horizontalStack=0;resizeParent=1;resizeParentMax=0;resizeLast=0;collapsible=1;marginBottom=0;whiteSpace=wrap;html=1;" vertex="1" parent="1">
          <mxGeometry x="1281" y="1446" width="120" height="160" as="geometry" />
        </mxCell>
        <mxCell id="jw8cfmfsAVehepTe2Xxh-217" value="- given_name" style="text;strokeColor=none;fillColor=none;align=left;verticalAlign=top;spacingLeft=4;spacingRight=4;overflow=hidden;rotatable=0;points=[[0,0.5],[1,0.5]];portConstraint=eastwest;whiteSpace=wrap;html=1;fontSize=14;" vertex="1" parent="jw8cfmfsAVehepTe2Xxh-216">
          <mxGeometry y="26" width="120" height="26" as="geometry" />
        </mxCell>
        <mxCell id="jw8cfmfsAVehepTe2Xxh-218" value="-&amp;nbsp;family_name" style="text;strokeColor=none;fillColor=none;align=left;verticalAlign=top;spacingLeft=4;spacingRight=4;overflow=hidden;rotatable=0;points=[[0,0.5],[1,0.5]];portConstraint=eastwest;whiteSpace=wrap;html=1;fontSize=14;" vertex="1" parent="jw8cfmfsAVehepTe2Xxh-216">
          <mxGeometry y="52" width="120" height="108" as="geometry" />
        </mxCell>
        <mxCell id="jw8cfmfsAVehepTe2Xxh-219" value="0..n" style="text;strokeColor=none;fillColor=none;align=left;verticalAlign=top;spacingLeft=4;spacingRight=4;overflow=hidden;rotatable=0;points=[[0,0.5],[1,0.5]];portConstraint=eastwest;whiteSpace=wrap;html=1;" vertex="1" parent="1">
          <mxGeometry x="1401" y="1520" width="40" height="26" as="geometry" />
        </mxCell>
        <mxCell id="jw8cfmfsAVehepTe2Xxh-220" value="1..1" style="text;strokeColor=none;fillColor=none;align=left;verticalAlign=top;spacingLeft=4;spacingRight=4;overflow=hidden;rotatable=0;points=[[0,0.5],[1,0.5]];portConstraint=eastwest;whiteSpace=wrap;html=1;" vertex="1" parent="1">
          <mxGeometry x="1521" y="1520" width="40" height="26" as="geometry" />
        </mxCell>
        <mxCell id="jw8cfmfsAVehepTe2Xxh-221" value="works at" style="text;align=center;fontStyle=0;verticalAlign=middle;spacingLeft=3;spacingRight=3;strokeColor=none;rotatable=0;points=[[0,0.5],[1,0.5]];portConstraint=eastwest;html=1;fontSize=14;" vertex="1" parent="1">
          <mxGeometry x="1431" y="1523" width="80" height="26" as="geometry" />
        </mxCell>
        <mxCell id="jw8cfmfsAVehepTe2Xxh-222" value="&lt;b&gt;&lt;font style=&quot;font-size: 15px;&quot;&gt;Cash Register&lt;/font&gt;&lt;/b&gt;" style="swimlane;fontStyle=0;childLayout=stackLayout;horizontal=1;startSize=26;fillColor=none;horizontalStack=0;resizeParent=1;resizeParentMax=0;resizeLast=0;collapsible=1;marginBottom=0;whiteSpace=wrap;html=1;" vertex="1" parent="1">
          <mxGeometry x="1561" y="1146" width="140" height="146" as="geometry" />
        </mxCell>
        <mxCell id="jw8cfmfsAVehepTe2Xxh-223" value="-&amp;nbsp;number" style="text;strokeColor=none;fillColor=none;align=left;verticalAlign=top;spacingLeft=4;spacingRight=4;overflow=hidden;rotatable=0;points=[[0,0.5],[1,0.5]];portConstraint=eastwest;whiteSpace=wrap;html=1;fontSize=14;" vertex="1" parent="jw8cfmfsAVehepTe2Xxh-222">
          <mxGeometry y="26" width="140" height="26" as="geometry" />
        </mxCell>
        <mxCell id="jw8cfmfsAVehepTe2Xxh-224" value="- is_self_checkout" style="text;strokeColor=none;fillColor=none;align=left;verticalAlign=top;spacingLeft=4;spacingRight=4;overflow=hidden;rotatable=0;points=[[0,0.5],[1,0.5]];portConstraint=eastwest;whiteSpace=wrap;html=1;fontSize=14;" vertex="1" parent="jw8cfmfsAVehepTe2Xxh-222">
          <mxGeometry y="52" width="140" height="26" as="geometry" />
        </mxCell>
        <mxCell id="jw8cfmfsAVehepTe2Xxh-225" value="&lt;div&gt;&lt;br&gt;&lt;/div&gt;&lt;div&gt;&lt;br&gt;&lt;/div&gt;" style="text;strokeColor=none;fillColor=none;align=left;verticalAlign=top;spacingLeft=4;spacingRight=4;overflow=hidden;rotatable=0;points=[[0,0.5],[1,0.5]];portConstraint=eastwest;whiteSpace=wrap;html=1;" vertex="1" parent="jw8cfmfsAVehepTe2Xxh-222">
          <mxGeometry y="78" width="140" height="68" as="geometry" />
        </mxCell>
        <mxCell id="jw8cfmfsAVehepTe2Xxh-226" value="1..n" style="text;strokeColor=none;fillColor=none;align=left;verticalAlign=top;spacingLeft=4;spacingRight=4;overflow=hidden;rotatable=0;points=[[0,0.5],[1,0.5]];portConstraint=eastwest;whiteSpace=wrap;html=1;" vertex="1" parent="1">
          <mxGeometry x="1621" y="1266" width="40" height="26" as="geometry" />
        </mxCell>
        <mxCell id="jw8cfmfsAVehepTe2Xxh-227" value="1..1" style="text;strokeColor=none;fillColor=none;align=left;verticalAlign=top;spacingLeft=4;spacingRight=4;overflow=hidden;rotatable=0;points=[[0,0.5],[1,0.5]];portConstraint=eastwest;whiteSpace=wrap;html=1;" vertex="1" parent="1">
          <mxGeometry x="1621" y="1416" width="40" height="30" as="geometry" />
        </mxCell>
        <mxCell id="jw8cfmfsAVehepTe2Xxh-228" value="&lt;font style=&quot;font-size: 14px;&quot;&gt;located at&lt;/font&gt;" style="text;align=center;fontStyle=0;verticalAlign=middle;spacingLeft=3;spacingRight=3;strokeColor=none;rotatable=0;points=[[0,0.5],[1,0.5]];portConstraint=eastwest;html=1;" vertex="1" parent="1">
          <mxGeometry x="1541" y="1346" width="80" height="26" as="geometry" />
        </mxCell>
        <mxCell id="jw8cfmfsAVehepTe2Xxh-229" value="1..1" style="text;strokeColor=none;fillColor=none;align=left;verticalAlign=top;spacingLeft=4;spacingRight=4;overflow=hidden;rotatable=0;points=[[0,0.5],[1,0.5]];portConstraint=eastwest;whiteSpace=wrap;html=1;" vertex="1" parent="1">
          <mxGeometry x="1321" y="1416" width="40" height="26" as="geometry" />
        </mxCell>
        <mxCell id="jw8cfmfsAVehepTe2Xxh-230" value="0..n" style="text;strokeColor=none;fillColor=none;align=left;verticalAlign=top;spacingLeft=4;spacingRight=4;overflow=hidden;rotatable=0;points=[[0,0.5],[1,0.5]];portConstraint=eastwest;whiteSpace=wrap;html=1;" vertex="1" parent="1">
          <mxGeometry x="1521" y="1226" width="40" height="26" as="geometry" />
        </mxCell>
        <mxCell id="jw8cfmfsAVehepTe2Xxh-231" value="leads" style="text;align=center;fontStyle=0;verticalAlign=middle;spacingLeft=3;spacingRight=3;strokeColor=none;rotatable=0;points=[[0,0.5],[1,0.5]];portConstraint=eastwest;html=1;fontSize=14;" vertex="1" parent="1">
          <mxGeometry x="1311" y="1240" width="80" height="26" as="geometry" />
        </mxCell>
        <mxCell id="jw8cfmfsAVehepTe2Xxh-232" value="" style="endArrow=classic;html=1;rounded=0;entryX=0.383;entryY=-0.012;entryDx=0;entryDy=0;entryPerimeter=0;exitX=0.323;exitY=1.047;exitDx=0;exitDy=0;exitPerimeter=0;" edge="1" parent="1" source="jw8cfmfsAVehepTe2Xxh-225" target="jw8cfmfsAVehepTe2Xxh-193">
          <mxGeometry width="50" height="50" relative="1" as="geometry">
            <mxPoint x="1631" y="1426" as="sourcePoint" />
            <mxPoint x="1681" y="1376" as="targetPoint" />
          </mxGeometry>
        </mxCell>
        <mxCell id="jw8cfmfsAVehepTe2Xxh-233" value="" style="endArrow=classic;html=1;rounded=0;exitX=0.25;exitY=0;exitDx=0;exitDy=0;" edge="1" parent="1" source="jw8cfmfsAVehepTe2Xxh-216">
          <mxGeometry width="50" height="50" relative="1" as="geometry">
            <mxPoint x="1590" y="1592" as="sourcePoint" />
            <mxPoint x="1560" y="1202" as="targetPoint" />
            <Array as="points">
              <mxPoint x="1311" y="1202" />
            </Array>
          </mxGeometry>
        </mxCell>
        <mxCell id="jw8cfmfsAVehepTe2Xxh-234" value="" style="endArrow=classic;html=1;rounded=0;exitX=1.027;exitY=0.135;exitDx=0;exitDy=0;exitPerimeter=0;entryX=-0.024;entryY=0.297;entryDx=0;entryDy=0;entryPerimeter=0;" edge="1" parent="1" source="jw8cfmfsAVehepTe2Xxh-218" target="jw8cfmfsAVehepTe2Xxh-194">
          <mxGeometry width="50" height="50" relative="1" as="geometry">
            <mxPoint x="1550" y="1452" as="sourcePoint" />
            <mxPoint x="1600" y="1402" as="targetPoint" />
          </mxGeometry>
        </mxCell>
        <mxCell id="jw8cfmfsAVehepTe2Xxh-235" value="" style="endArrow=classic;html=1;rounded=0;exitX=0.87;exitY=-0.092;exitDx=0;exitDy=0;exitPerimeter=0;entryX=0.03;entryY=-0.092;entryDx=0;entryDy=0;entryPerimeter=0;" edge="1" parent="1" source="jw8cfmfsAVehepTe2Xxh-201" target="jw8cfmfsAVehepTe2Xxh-200">
          <mxGeometry width="50" height="50" relative="1" as="geometry">
            <mxPoint x="1210" y="1572" as="sourcePoint" />
            <mxPoint x="1740" y="1470" as="targetPoint" />
          </mxGeometry>
        </mxCell>
        <mxCell id="jw8cfmfsAVehepTe2Xxh-236" value="" style="endArrow=classic;html=1;rounded=0;entryX=0.453;entryY=1.014;entryDx=0;entryDy=0;entryPerimeter=0;exitX=0.448;exitY=-0.007;exitDx=0;exitDy=0;exitPerimeter=0;" edge="1" parent="1" source="jw8cfmfsAVehepTe2Xxh-202" target="jw8cfmfsAVehepTe2Xxh-194">
          <mxGeometry width="50" height="50" relative="1" as="geometry">
            <mxPoint x="1560" y="1742" as="sourcePoint" />
            <mxPoint x="1620" y="1802" as="targetPoint" />
          </mxGeometry>
        </mxCell>
        <mxCell id="jw8cfmfsAVehepTe2Xxh-237" value="" style="endArrow=classic;html=1;rounded=0;exitX=0.068;exitY=-0.049;exitDx=0;exitDy=0;exitPerimeter=0;entryX=0.92;entryY=-0.074;entryDx=0;entryDy=0;entryPerimeter=0;" edge="1" parent="1" source="jw8cfmfsAVehepTe2Xxh-213" target="jw8cfmfsAVehepTe2Xxh-214">
          <mxGeometry width="50" height="50" relative="1" as="geometry">
            <mxPoint x="1557" y="1907.4099999999999" as="sourcePoint" />
            <mxPoint x="1530" y="1882" as="targetPoint" />
          </mxGeometry>
        </mxCell>
      </root>
    </mxGraphModel>
  </diagram>
</mxfile>
